<?xml version="1.0" encoding="utf-8"?>
<!-- Generator: Adobe Illustrator 16.0.3, SVG Export Plug-In . SVG Version: 6.00 Build 0)  -->
<!DOCTYPE svg PUBLIC "-//W3C//DTD SVG 1.1//EN" "http://www.w3.org/Graphics/SVG/1.1/DTD/svg11.dtd">
<svg version="1.1" id="Layer_1" xmlns="http://www.w3.org/2000/svg" xmlns:xlink="http://www.w3.org/1999/xlink" x="0px" y="0px"
	 width="1620px" height="540px" viewBox="0 0 1620 540" enable-background="new 0 0 1620 540" xml:space="preserve">
<text transform="matrix(1 0 0 1 638.1572 377.2891)" fill="#FFFFFF" font-family="'Museo700-Regular'" font-size="329.8315">Ballot</text>
<g>
	<g sketch:type="MSPage">
		<g transform="translate(-401.000000, -99.000000)" sketch:type="MSArtboardGroup">
			<g transform="translate(421.000000, 119.000000)" sketch:type="MSLayerGroup">
				<path sketch:type="MSShapeGroup" fill="#FFFFFF" d="M294.36,520.5c148.88,0,269.57-120.669,269.57-269.57
					S443.261-18.641,294.36-18.641C145.48-18.641,24.79,102.028,24.79,250.93S145.459,520.5,294.36,520.5z"/>
				<polygon sketch:type="MSShapeGroup" fill="#FFFFFF" points="294.927,25.265 281.896,32.157 284.352,17.617 273.871,7.418 
					288.412,5.342 294.927,-7.877 301.441,5.342 315.888,7.418 305.408,17.617 307.862,32.157 				">
				</polygon>
				<polygon sketch:type="MSShapeGroup" fill="#FFFFFF" points="294.927,502.938 281.896,509.831 284.352,495.385 273.871,485.093 
					288.412,483.015 294.927,469.796 301.441,483.015 315.888,485.093 305.408,495.385 307.862,509.831 				">
				</polygon>
				<polygon sketch:type="MSShapeGroup" fill="#FFFFFF" points="532.111,262.543 519.175,269.342 521.63,254.896 511.055,244.603 
					525.596,242.525 532.111,229.402 538.626,242.525 553.167,244.603 542.592,254.896 545.141,269.342 				">
				</polygon>
				<polygon sketch:type="MSShapeGroup" fill="#FFFFFF" points="57.647,262.543 44.712,269.342 47.167,254.896 36.687,244.603 
					51.228,242.525 57.647,229.402 64.163,242.525 78.704,244.603 68.223,254.896 70.678,269.342 				">
				</polygon>
				<path sketch:type="MSShapeGroup" fill="#FFFFFF" d="M445.864,89.564l-13.742-4.249l11.75-8.309l-0.184-14.352l11.533,8.593
					l13.629-4.627l-4.623,13.597l8.607,11.52l-14.39-0.189l-8.31,11.803L445.864,89.564L445.864,89.564z"/>
				<path sketch:type="MSShapeGroup" fill="#FFFFFF" d="M445.864,418.525l-13.742-4.248l11.75-8.31l-0.184-14.446l11.533,8.593
					l13.629-4.627l-4.623,13.69l8.607,11.52l-14.39-0.189l-8.31,11.709L445.864,418.525L445.864,418.525z"/>
				<path sketch:type="MSShapeGroup" fill="#FFFFFF" d="M116.96,89.564l-13.742-4.249l11.75-8.309l-0.184-14.352l11.534,8.593
					l13.629-4.627l-4.622,13.597l8.607,11.52l-14.39-0.189l-8.31,11.803L116.96,89.564L116.96,89.564z"/>
				<path sketch:type="MSShapeGroup" fill="#FFFFFF" d="M115.465,420.036l-13.742-4.343l11.75-8.309l-0.184-14.353l11.534,8.592
					l13.629-4.626l-4.622,13.691l8.606,11.52l-14.39-0.189l-8.31,11.708L115.465,420.036L115.465,420.036z"/>
				<path sketch:type="MSShapeGroup" fill="#FFFFFF" d="M294.406,453.744c111.983,0,202.769-90.832,202.769-202.814
					C497.169,138.947,406.342,48.208,294.36,48.208c-111.937,0-202.721,90.739-202.721,202.721
					c0.004,111.982,90.738,202.814,202.721,202.814H294.406z"/>
				<path sketch:type="MSShapeGroup" fill="#FFFFFF" d="M242.873,329.109c0,12.936,5.694,18.318,18.346,18.318h47.699
					c35.583,0,66.078-17.279,66.078-55.52c-0.034-19.451-10.009-38.808-30.781-45.039l0.017-0.567
					c11.591-5.853,23.211-19.639,23.211-40.884c-0.027-31.631-24.833-49.382-59.296-49.382H225.35v29.932h17.522V329.109z
					 M278.186,234.217v-48.249h29.652c15.635,0,23.723,10.008,23.723,23.699c-0.001,13.786-8.403,24.549-23.228,24.549H278.186z
					 M278.186,311.548V262.26h33.427c16.983,0,26.936,11.613,26.936,27.477c0.021,16.146-9.725,27.76-26.91,27.76h-27.522
					c-3.774,0-5.902-2.172-5.902-5.948H278.186z"/>
			</g>
		</g>
	</g>
</g>
</svg>
