<svg xmlns="http://www.w3.org/2000/svg" xmlns:xlink="http://www.w3.org/1999/xlink" xmlns:sketch="http://www.bohemiancoding.com/sketch/ns" width="611px" height="611px" viewBox="0 0 611 611" version="1.1"><style>.style0{fill:	none;fill-rule:	evenodd;}.style1{stroke:	#FFFFFF;stroke-width:	20;}.style2{fill:	#FFFFFF;}</style><g sketch:type="MSPage" class="style0"><g sketch:type="MSArtboardGroup" transform="translate(-401.000000, -99.000000)"><g sketch:type="MSLayerGroup" transform="translate(421.000000, 119.000000)"><path d="M285.5 571 C443.177296 571 571 443.2 571 285.5 C571 127.8 443.2 0 285.5 0 C127.822704 0 0 127.8 0 285.5 C0 443.2 127.8 571 285.5 571 Z" sketch:type="MSShapeGroup" class="style1"/><polygon sketch:type="MSShapeGroup" points="286.1,46.5 272.3,53.8 274.9,38.4 263.8,27.6 279.2,25.4 286.1,11.4 293,25.4 308.3,27.6 297.2,38.4 299.8,53.8" class="style2"/><polygon sketch:type="MSShapeGroup" points="286.1,552.4 272.3,559.7 274.9,544.4 263.8,533.5 279.2,531.3 286.1,517.3 293,531.3 308.3,533.5 297.2,544.4 299.8,559.7" class="style2"/><polygon sketch:type="MSShapeGroup" points="537.3,297.8 523.6,305 526.2,289.7 515,278.8 530.4,276.6 537.3,262.7 544.2,276.6 559.6,278.8 548.4,289.7 551.1,305" class="style2"/><polygon sketch:type="MSShapeGroup" points="34.8,297.8 21.1,305 23.7,289.7 12.6,278.8 28,276.6 34.8,262.7 41.7,276.6 57.1,278.8 46,289.7 48.6,305" class="style2"/><path d="M445.957323 114.6 L431.402682 110.1 L443.846893 101.3 L443.652094 86.1 L455.867305 95.2 L470.301553 90.3 L465.406758 104.7 L474.522413 116.9 L459.282052 116.7 L450.481589 129.2 L445.957323 114.6 L445.957323 114.6 Z" sketch:type="MSShapeGroup" class="style2"/><path d="M445.957323 463 L431.402682 458.5 L443.846893 449.7 L443.652094 434.4 L455.867305 443.5 L470.301553 438.6 L465.406758 453.1 L474.522413 465.3 L459.282052 465.1 L450.481589 477.5 L445.957323 463 L445.957323 463 Z" sketch:type="MSShapeGroup" class="style2"/><path d="M97.6171116 114.6 L83.0624711 110.1 L95.5066818 101.3 L95.311883 86.1 L107.527094 95.2 L121.961342 90.3 L117.066547 104.7 L126.182202 116.9 L110.941841 116.7 L102.141377 129.2 L97.6171116 114.6 L97.6171116 114.6 Z" sketch:type="MSShapeGroup" class="style2"/><path d="M96.033747 464.6 L81.4791065 460 L93.9233172 451.2 L93.7285184 436 L105.943729 445.1 L120.377978 440.2 L115.483183 454.7 L124.598837 466.9 L109.358477 466.7 L100.558013 479.1 L96.033747 464.6 L96.033747 464.6 Z" sketch:type="MSShapeGroup" class="style2"/><path d="M285.548984 500.3 C404.149364 500.3 500.3 404.1 500.3 285.5 C500.293968 166.9 404.1 70.8 285.5 70.8 C166.948604 70.8 70.8 166.9 70.8 285.5 C70.804 404.1 166.9 500.3 285.5 500.3 Z" sketch:type="MSShapeGroup" class="style1"/><path d="M230.9695 368.3 C230.9695 382 237 387.7 250.4 387.7 L300.917 387.7 C338.603 387.7 370.9 369.4 370.9 328.9 C370.8645 308.3 360.3 287.8 338.3 281.2 L338.3175 280.6 C350.594 274.4 362.9 259.8 362.9 237.3 C362.8705 203.8 336.6 185 300.1 185 L212.412 185 L212.412 216.7 L230.9695 216.7 L230.9695 368.3 Z M268.37 267.8 L268.37 216.7 L299.775 216.7 C316.334 216.7 324.9 227.3 324.9 241.8 C324.899 256.4 316 267.8 300.3 267.8 L268.37 267.8 Z M268.37 349.7 L268.37 297.5 L303.772 297.5 C321.7585 297.5 332.3 309.8 332.3 326.6 C332.322 343.7 322 356 303.8 356 L274.651 356 C270.654 356 268.4 353.7 268.4 349.7 L268.37 349.7 Z" sketch:type="MSShapeGroup" class="style2"/></g></g></g></svg>